<svg xmlns="http://www.w3.org/2000/svg" viewBox="0 0 800 600" fill="none">
  <rect width="800" height="600" rx="12" fill="#1A1A1A"/>
  <g transform="translate(160, 150)">
    <rect x="-60" y="-20" width="120" height="40" rx="8" fill="#2A2A2A" stroke="#00FF88" stroke-width="2"/>
    <circle cx="-20" cy="0" r="12" fill="#0A0A0A" stroke="#555" stroke-width="2"/>
    <circle cx="20" cy="0" r="12" fill="#0A0A0A" stroke="#555" stroke-width="2"/>
    <rect x="-60" y="20" width="120" height="8" rx="2" fill="#00FF88" opacity="0.2"/>
  </g>
  <g transform="translate(400, 150)">
    <rect x="-60" y="-20" width="120" height="40" rx="8" fill="#2A2A2A" stroke="#00FF88" stroke-width="2"/>
    <circle cx="-20" cy="0" r="16" fill="#0A0A0A" stroke="#555" stroke-width="2"/>
    <circle cx="20" cy="0" r="16" fill="#0A0A0A" stroke="#555" stroke-width="2"/>
    <rect x="-60" y="20" width="120" height="8" rx="2" fill="#00FF88" opacity="0.2"/>
  </g>
  <g transform="translate(640, 150)">
    <rect x="-60" y="-20" width="120" height="40" rx="8" fill="#2A2A2A" stroke="#00FF88" stroke-width="2"/>
    <circle cx="-15" cy="0" r="8" fill="#0A0A0A" stroke="#555" stroke-width="2"/>
    <circle cx="15" cy="0" r="8" fill="#0A0A0A" stroke="#555" stroke-width="2"/>
    <rect x="-60" y="20" width="120" height="8" rx="2" fill="#00FF88" opacity="0.2"/>
  </g>
  <g transform="translate(280, 320)">
    <rect x="-60" y="-20" width="120" height="40" rx="8" fill="#2A2A2A" stroke="#00FF88" stroke-width="2"/>
    <circle cx="-25" cy="0" r="18" fill="#0A0A0A" stroke="#555" stroke-width="2"/>
    <circle cx="25" cy="0" r="18" fill="#0A0A0A" stroke="#555" stroke-width="2"/>
    <rect x="-60" y="20" width="120" height="8" rx="2" fill="#00FF88" opacity="0.2"/>
  </g>
  <g transform="translate(520, 320)">
    <rect x="-60" y="-20" width="120" height="40" rx="8" fill="#2A2A2A" stroke="#00FF88" stroke-width="2"/>
    <circle cx="-22" cy="0" r="14" fill="#0A0A0A" stroke="#555" stroke-width="2"/>
    <circle cx="22" cy="0" r="14" fill="#0A0A0A" stroke="#555" stroke-width="2"/>
    <rect x="-60" y="20" width="120" height="8" rx="2" fill="#00FF88" opacity="0.2"/>
  </g>
  <path d="M130 150 Q100 150 100 200 Q100 300 200 320" stroke="#555" stroke-width="6" fill="none" stroke-linecap="round" opacity="0.4"/>
  <path d="M670 150 Q700 150 700 200 Q700 300 600 320" stroke="#555" stroke-width="8" fill="none" stroke-linecap="round" opacity="0.4"/>
  <circle cx="400" cy="480" r="40" fill="#00FF88" opacity="0.1"/>
  <text x="400" y="488" text-anchor="middle" fill="#00FF88" font-size="28" font-weight="bold" font-family="sans-serif">50</text>
</svg>
