<svg xmlns="http://www.w3.org/2000/svg" viewBox="0 0 800 600" fill="none">
  <rect width="800" height="600" rx="12" fill="#1A1A1A"/>
  <rect x="0" y="80" width="800" height="40" fill="#222" stroke="#333" stroke-width="1"/>
  <rect x="0" y="0" width="800" height="80" fill="#1A1A1A"/>
  <rect x="340" y="80" width="120" height="50" rx="4" fill="#2A2A2A" stroke="#00FF88" stroke-width="2"/>
  <rect x="355" y="130" width="90" height="30" rx="2" fill="#333"/>
  <circle cx="400" cy="130" r="10" fill="#444" stroke="#555" stroke-width="1"/>
  <line x1="395" y1="130" x2="405" y2="130" stroke="#666" stroke-width="2"/>
  <line x1="400" y1="125" x2="400" y2="135" stroke="#666" stroke-width="2"/>
  <rect x="370" y="160" width="60" height="20" rx="4" fill="#2A2A2A" stroke="#00FF88" stroke-width="2"/>
  <path d="M400 180 L400 280 Q400 340 340 340 Q280 340 280 300 L280 260" stroke="#00FF88" stroke-width="14" fill="none" stroke-linecap="round"/>
  <path d="M400 180 L400 280 Q400 340 340 340 Q280 340 280 300 L280 260" stroke="#2A2A2A" stroke-width="8" fill="none" stroke-linecap="round"/>
  <path d="M280 200 Q260 160 280 140 Q300 120 320 140 Q340 160 320 200" stroke="#555" stroke-width="8" fill="none" stroke-linecap="round"/>
  <path d="M280 200 L280 420 Q280 440 290 440 L300 440 Q310 440 310 420 L310 280" stroke="#555" stroke-width="8" fill="none" stroke-linecap="round"/>
  <path d="M320 200 L320 400 Q320 440 335 440 L345 440 Q360 440 360 400 L360 280" stroke="#555" stroke-width="8" fill="none" stroke-linecap="round"/>
  <ellipse cx="280" cy="420" rx="18" ry="12" fill="#333" stroke="#555" stroke-width="2"/>
  <ellipse cx="345" cy="420" rx="18" ry="12" fill="#333" stroke="#555" stroke-width="2"/>
  <rect x="580" y="500" width="160" height="36" rx="6" fill="#0A0A0A" stroke="#333" stroke-width="1"/>
  <text x="660" y="524" text-anchor="middle" fill="#888" font-size="13" font-family="sans-serif">Clamp-on / Screw-mount</text>
</svg>
