<svg xmlns="http://www.w3.org/2000/svg" viewBox="0 0 800 600" fill="none">
  <rect width="800" height="600" rx="12" fill="#1A1A1A"/>
  <rect x="100" y="80" width="600" height="420" rx="16" stroke="#333" stroke-width="4" fill="#111"/>
  <rect x="120" y="100" width="560" height="380" rx="8" fill="#0D0D0D"/>
  <rect x="350" y="78" width="100" height="12" rx="6" fill="#1A1A1A" stroke="#333" stroke-width="1"/>
  <circle cx="400" cy="84" r="4" fill="#333"/>
  <rect x="380" y="76" width="40" height="16" rx="4" fill="#00FF88" opacity="0.9"/>
  <rect x="390" y="78" width="20" height="12" rx="2" fill="#00CC66"/>
  <line x1="430" y1="84" x2="450" y2="84" stroke="#00FF88" stroke-width="3" stroke-linecap="round" opacity="0.5"/>
  <polygon points="450,84 444,80 444,88" fill="#00FF88" opacity="0.5"/>
  <rect x="120" y="100" width="560" height="380" rx="8" fill="url(#screenGlow)" opacity="0.3"/>
  <defs>
    <linearGradient id="screenGlow" x1="0" y1="0" x2="0" y2="1">
      <stop offset="0%" stop-color="#00FF88" stop-opacity="0.08"/>
      <stop offset="100%" stop-color="#00FF88" stop-opacity="0"/>
    </linearGradient>
  </defs>
  <g transform="translate(400, 530)">
    <circle cx="-40" cy="0" r="6" fill="#00FF88" opacity="0.3"/>
    <circle cx="-20" cy="0" r="6" fill="#00FF88" opacity="0.5"/>
    <circle cx="0" cy="0" r="8" fill="#00FF88"/>
    <circle cx="20" cy="0" r="6" fill="#00FF88" opacity="0.5"/>
    <circle cx="40" cy="0" r="6" fill="#00FF88" opacity="0.3"/>
  </g>
</svg>
